<svg width="225" height="40" viewBox="0 0 225 40" fill="none" xmlns="http://www.w3.org/2000/svg">
<g style="mix-blend-mode:luminosity">
<g clip-path="url(#clip0_48_354)">
<path d="M19.9959 11.9032V0L0 20L19.9959 40V21.4274V18.5726H17.1452H12.2773V22.2407H16.3318V31.4843L4.8475 20L17.1452 7.69825V11.9032H19.9959Z" fill="white"/>
<path d="M25.7431 3.58276V36.4132L22.1562 40V0L25.7431 3.58276Z" fill="#FBFDFF"/>
<path d="M33.9623 11.8056V28.1944L29.8672 32.2895V7.71045L33.9623 11.8056Z" fill="#FBFDFF"/>
<path d="M42.1577 20.0001L38.0625 24.0993V15.9009L42.1577 20.0001Z" fill="#FBFDFF"/>
</g>
<g clip-path="url(#clip1_48_354)">
<path d="M61.0445 31.6318C59.5937 31.6381 58.1587 31.3296 56.8387 30.7275C55.5234 30.1283 54.3376 29.2782 53.3478 28.225C52.3373 27.1412 51.5432 25.8742 51.0083 24.4923C50.4336 23.0199 50.1446 21.4516 50.1566 19.8711C50.146 18.3497 50.4317 16.8408 50.9978 15.4287C51.539 14.062 52.3387 12.8125 53.3531 11.7485C54.3654 10.6972 55.5724 9.85259 56.907 9.26182C58.3029 8.65448 59.8116 8.34987 61.3337 8.36807C63.2712 8.31301 65.187 8.78743 66.8749 9.74023C68.3578 10.5951 69.5639 11.8579 70.35 13.3783L67.0221 15.8335C66.486 14.7359 65.6373 13.8213 64.5827 13.2048C63.5536 12.6115 62.3849 12.303 61.197 12.3111C60.2841 12.3022 59.3825 12.5132 58.5683 12.9262C57.7569 13.3306 57.0402 13.9021 56.4654 14.6033C55.8758 15.3352 55.4218 16.1667 55.1248 17.0584C54.8104 18.0062 54.6523 18.9988 54.6569 19.9973C54.6522 21.0332 54.8302 22.0619 55.1826 23.036C55.494 23.9284 55.9761 24.7516 56.6021 25.4597C57.2034 26.1404 57.9344 26.6945 58.7524 27.0894C59.5982 27.496 60.5267 27.7011 61.4651 27.6888C62.6305 27.6759 63.7722 27.3588 64.7773 26.7687C65.9315 26.0915 66.9452 25.1991 67.7634 24.1401V28.5352C66.9315 29.5035 65.9008 30.2812 64.7414 30.8156C63.582 31.3499 62.3211 31.6283 61.0445 31.6318ZM67.4427 22.9414H62.8215L64.0044 19.6766H71.1281V31.4688H67.448L67.4427 22.9414Z" fill="white"/>
<path d="M84.6303 31.6316C83.0543 31.6543 81.4932 31.3237 80.0617 30.6643C78.7198 30.0388 77.5208 29.144 76.5393 28.0356C75.5616 26.9329 74.7905 25.6631 74.2628 24.2871C73.7268 22.9222 73.4521 21.4688 73.4532 20.0024C73.4472 18.5021 73.7385 17.0154 74.3102 15.6283C74.8674 14.2576 75.667 12.9985 76.6707 11.9114C77.6713 10.8211 78.8796 9.94175 80.2247 9.32474C81.6384 8.67987 83.1764 8.35323 84.7302 8.36791C86.2997 8.34924 87.8523 8.69287 89.2673 9.37206C90.6071 10.0144 91.8007 10.9253 92.7739 12.048C93.7401 13.1563 94.5052 14.4249 95.0346 15.7965C96.125 18.5638 96.1137 21.6436 95.003 24.4028C94.4566 25.7742 93.6637 27.0339 92.6635 28.1197C91.6627 29.2057 90.4542 30.0799 89.1096 30.6906C87.7023 31.3251 86.1739 31.6462 84.6303 31.6316ZM77.9745 19.9971C77.9732 20.9752 78.1258 21.9475 78.4267 22.8782C78.7157 23.7718 79.1587 24.608 79.7357 25.3491C80.3203 26.0944 81.0701 26.6937 81.9259 27.0997C82.7817 27.5057 83.7201 27.7073 84.6671 27.6886C85.6654 27.7063 86.6529 27.4789 87.5429 27.0262C88.3676 26.5981 89.0861 25.991 89.6458 25.2492C90.2079 24.4977 90.6397 23.6571 90.9233 22.7625C91.2102 21.8687 91.3574 20.9359 91.3597 19.9971C91.3617 19.0263 91.2036 18.0618 90.8918 17.1424C90.5974 16.2537 90.1568 15.4203 89.588 14.6767C89.02 13.9606 88.3022 13.3775 87.485 12.9681C86.5959 12.5473 85.6235 12.3317 84.6399 12.3372C83.6562 12.3426 82.6863 12.569 81.8019 12.9996C80.9815 13.4273 80.264 14.0283 79.6989 14.7608C79.1372 15.501 78.7052 16.3312 78.4214 17.216C78.1284 18.1141 77.9776 19.0525 77.9745 19.9971Z" fill="white"/>
<path d="M109.032 8.53125H104.506L96.0625 31.469H100.647L102.571 25.749L106.777 13.1314L110.983 25.749L112.891 31.469H117.476L109.032 8.53125Z" fill="white"/>
<path d="M119.914 31.469V8.53125H124.372V27.5628H136.065V31.469H119.914Z" fill="white"/>
<path d="M154.16 8.53125L145.827 23.4568V31.469H141.395V23.3937L133.094 8.53125H137.941L143.593 19.3246L149.344 8.53125H154.16Z" fill="white"/>
<path d="M149.341 8.53125L143.59 19.3193L137.949 8.53125H133.102L141.403 23.3937V31.469H145.835V23.4568L154.157 8.53125H149.341Z" fill="white"/>
<path d="M156.807 8.53125L154.641 12.4059V12.4427H161.975V31.469H166.401V12.4427H173.735V8.53125H156.807Z" fill="white"/>
<path d="M176.492 31.4688H180.945V13.8042L176.492 18.1678V31.4688Z" fill="white"/>
<path d="M176.492 8.53125V16.2332L180.945 11.8644V8.53125H176.492Z" fill="#FBFDFF"/>
<path d="M184.219 19.8082C184.222 18.3995 184.48 17.0029 184.981 15.6864C185.49 14.336 186.24 13.0891 187.194 12.0063C188.181 10.8902 189.392 9.99458 190.748 9.37761C192.253 8.68771 193.893 8.34283 195.548 8.3682C197.473 8.31529 199.374 8.79564 201.042 9.75614C202.511 10.6115 203.706 11.8681 204.486 13.3784L201.042 15.7285C200.705 14.9344 200.184 14.2317 199.523 13.6781C198.933 13.1963 198.251 12.8387 197.52 12.6266C196.837 12.4261 196.129 12.3234 195.417 12.3217C194.401 12.2967 193.395 12.5301 192.494 12.9999C191.675 13.4368 190.958 14.0425 190.391 14.7769C189.831 15.5126 189.41 16.3447 189.15 17.2321C188.882 18.1114 188.746 19.0256 188.745 19.9449C188.743 20.9393 188.906 21.9273 189.229 22.8679C189.534 23.7737 189.999 24.6176 190.601 25.3599C191.184 26.0737 191.912 26.656 192.736 27.0685C193.582 27.4929 194.517 27.7092 195.464 27.6994C196.2 27.6964 196.931 27.5775 197.63 27.3472C198.374 27.1007 199.064 26.7153 199.665 26.2116C200.307 25.673 200.807 24.9852 201.121 24.2085L204.77 26.3115C204.309 27.4635 203.544 28.4685 202.556 29.2188C201.526 30.0201 200.362 30.6324 199.118 31.0273C197.898 31.4288 196.622 31.6364 195.338 31.6424C193.78 31.6605 192.24 31.311 190.843 30.6225C189.519 29.9516 188.34 29.0262 187.373 27.8992C186.397 26.769 185.622 25.4798 185.081 24.0876C184.529 22.7274 184.237 21.2759 184.219 19.8082Z" fill="white"/>
<path d="M223.259 21.5112C222.603 20.6147 221.721 19.9074 220.704 19.4609C219.444 18.8807 218.128 18.4314 216.776 18.1203L216.451 18.0361C215.436 17.768 214.568 17.5104 213.869 17.2896C213.227 17.1055 212.632 16.7864 212.124 16.3538C211.927 16.1585 211.774 15.9232 211.676 15.6638C211.578 15.4043 211.537 15.1269 211.556 14.8502C211.541 14.4825 211.617 14.1167 211.777 13.7856C211.938 13.4544 212.178 13.1681 212.476 12.9523C213.295 12.4478 214.251 12.2125 215.21 12.2794C215.897 12.2783 216.582 12.3703 217.244 12.5527C217.876 12.7255 218.498 12.9344 219.105 13.1784C219.581 13.3749 220.039 13.6087 220.478 13.8776L223.353 10.923C222.633 10.4421 221.876 10.0201 221.088 9.66121C220.221 9.26322 219.318 8.94983 218.39 8.72541C217.385 8.48169 216.354 8.36164 215.32 8.36791C213.877 8.35104 212.446 8.63016 211.114 9.18805C209.899 9.69093 208.851 10.5276 208.091 11.6012C207.316 12.7664 206.926 14.1455 206.977 15.5442C206.939 16.5553 207.185 17.5568 207.687 18.4357C208.217 19.2614 208.965 19.9252 209.847 20.3546C210.859 20.8584 211.915 21.2684 213.002 21.5796C213.159 21.6269 213.312 21.6795 213.475 21.7215C214.677 22.072 215.729 22.3892 216.629 22.6731C217.37 22.8911 218.068 23.2324 218.695 23.6825C218.94 23.8935 219.132 24.1578 219.258 24.4552C219.384 24.7525 219.44 25.0748 219.421 25.3971C219.402 25.7194 219.309 26.0331 219.15 26.3137C218.99 26.5944 218.768 26.8346 218.501 27.0157C217.661 27.476 216.707 27.6876 215.751 27.6255C214.891 27.6242 214.035 27.5165 213.202 27.3048C212.406 27.1008 211.627 26.8353 210.873 26.511C210.298 26.2642 209.741 25.9779 209.206 25.654L206.109 28.6928C207.003 29.3194 207.962 29.8482 208.969 30.27C210.031 30.7136 211.133 31.0534 212.26 31.2846C213.387 31.5231 214.536 31.6429 215.688 31.6421C216.775 31.6477 217.859 31.5223 218.916 31.2689C219.885 31.0464 220.806 30.6511 221.634 30.1017C222.425 29.5695 223.069 28.8462 223.506 27.9988C223.989 27.0194 224.224 25.936 224.189 24.8444C224.225 23.6647 223.9 22.5021 223.259 21.5112Z" fill="white"/>
</g>
</g>
<defs>
<clipPath id="clip0_48_354">
<rect width="42.1553" height="40" fill="white"/>
</clipPath>
<clipPath id="clip1_48_354">
<rect width="173.992" height="23.2637" fill="white" transform="translate(50.1562 8.36816)"/>
</clipPath>
</defs>
</svg>
